<?xml version="1.0" encoding="UTF-8" standalone="no"?><svg xmlns="http://www.w3.org/2000/svg" xmlns:xlink="http://www.w3.org/1999/xlink" contentScriptType="application/ecmascript" contentStyleType="text/css" height="524.8px" preserveAspectRatio="none" style="width:867px;height:524px;" version="1.1" viewBox="0 0 867 524" width="867.2px" zoomAndPan="magnify"><defs><filter height="300%" id="fqbp7ar9oyvkb" width="300%" x="-1" y="-1"><feGaussianBlur result="blurOut" stdDeviation="3.200000047683716"/><feColorMatrix in="blurOut" result="blurOut2" type="matrix" values="0 0 0 0 0 0 0 0 0 0 0 0 0 0 0 0 0 0 .4 0"/><feOffset dx="6.400000095367432" dy="6.400000095367432" in="blurOut2" result="blurOut3"/><feBlend in="SourceGraphic" in2="blurOut3" mode="normal"/></filter></defs><g><!--class Project--><rect fill="#FEFECE" filter="url(#fqbp7ar9oyvkb)" height="51.2" id="Project" style="stroke: #A80036; stroke-width: 2.400000035762787;" width="116.8" x="664" y="12.8"/><ellipse cx="688" cy="38.4" fill="#ADD1B2" rx="17.6" ry="17.6" style="stroke: #A80036; stroke-width: 1.600000023841858;"/><path d="M692.75,46.4 Q691.825,47.2 690.8,47.6 Q689.775,48 688.65,48 Q684.65,48 682.5375,45.5375 Q680.425,43.075 680.425,38.4 Q680.425,33.725 682.5375,31.2625 Q684.65,28.8 688.65,28.8 Q689.775,28.8 690.8125,29.2 Q691.85,29.6 692.75,30.4 L692.75,35.2 Q691.75,33.55 690.8,32.775 Q689.85,32 688.825,32 Q686.7,32 685.6,33.6125 Q684.5,35.225 684.5,38.4 Q684.5,41.575 685.6,43.1875 Q686.7,44.8 688.825,44.8 Q689.85,44.8 690.8,44.025 Q691.75,43.25 692.75,41.6 L692.75,46.4 Z "/><text fill="#000000" font-family="sans-serif" font-size="19.2" lengthAdjust="spacingAndGlyphs" textLength="65.6" x="710.4" y="45.0469">Project</text><!--class Task--><rect fill="#FEFECE" filter="url(#fqbp7ar9oyvkb)" height="145.95" id="Task" style="stroke: #A80036; stroke-width: 2.400000035762787;" width="201.6" x="621.6" y="187.2"/><ellipse cx="694" cy="212.8" fill="#ADD1B2" rx="17.6" ry="17.6" style="stroke: #A80036; stroke-width: 1.600000023841858;"/><path d="M698.75,220.8 Q697.825,221.6 696.8,222 Q695.775,222.4 694.65,222.4 Q690.65,222.4 688.5375,219.9375 Q686.425,217.475 686.425,212.8 Q686.425,208.125 688.5375,205.6625 Q690.65,203.2 694.65,203.2 Q695.775,203.2 696.8125,203.6 Q697.85,204 698.75,204.8 L698.75,209.6 Q697.75,207.95 696.8,207.175 Q695.85,206.4 694.825,206.4 Q692.7,206.4 691.6,208.0125 Q690.5,209.625 690.5,212.8 Q690.5,215.975 691.6,217.5875 Q692.7,219.2 694.825,219.2 Q695.85,219.2 696.8,218.425 Q697.75,217.65 698.75,216 L698.75,220.8 Z "/><text fill="#000000" font-family="sans-serif" font-size="19.2" lengthAdjust="spacingAndGlyphs" textLength="43.2" x="726.8" y="219.4469">Task</text><line style="stroke: #A80036; stroke-width: 2.400000035762787;" x1="623.2" x2="821.6" y1="238.4" y2="238.4"/><rect fill="none" height="9.6" style="stroke: #C82930; stroke-width: 1.600000023841858;" width="9.6" x="634.4" y="252.6438"/><text fill="#000000" font-family="sans-serif" font-size="17.6" lengthAdjust="spacingAndGlyphs" textLength="99.2" x="653.6" y="261.1367">description</text><rect fill="none" height="9.6" style="stroke: #C82930; stroke-width: 1.600000023841858;" width="9.6" x="634.4" y="273.1313"/><text fill="#000000" font-family="sans-serif" font-size="17.6" lengthAdjust="spacingAndGlyphs" textLength="160" x="653.6" y="281.6242">expectedDuration</text><rect fill="none" height="9.6" style="stroke: #C82930; stroke-width: 1.600000023841858;" width="9.6" x="634.4" y="293.6188"/><text fill="#000000" font-family="sans-serif" font-size="17.6" lengthAdjust="spacingAndGlyphs" textLength="76.8" x="653.6" y="302.1117">deadline</text><rect fill="none" height="9.6" style="stroke: #C82930; stroke-width: 1.600000023841858;" width="9.6" x="634.4" y="314.1063"/><text fill="#000000" font-family="sans-serif" font-size="17.6" lengthAdjust="spacingAndGlyphs" textLength="80" x="653.6" y="322.5992">progress</text><!--class AgendaEntry--><rect fill="#FEFECE" filter="url(#fqbp7ar9oyvkb)" height="104.975" id="AgendaEntry" style="stroke: #A80036; stroke-width: 2.400000035762787;" width="177.6" x="387.2" y="207.2"/><ellipse cx="411.2" cy="232.8" fill="#ADD1B2" rx="17.6" ry="17.6" style="stroke: #A80036; stroke-width: 1.600000023841858;"/><path d="M415.95,240.8 Q415.025,241.6 414,242 Q412.975,242.4 411.85,242.4 Q407.85,242.4 405.7375,239.9375 Q403.625,237.475 403.625,232.8 Q403.625,228.125 405.7375,225.6625 Q407.85,223.2 411.85,223.2 Q412.975,223.2 414.0125,223.6 Q415.05,224 415.95,224.8 L415.95,229.6 Q414.95,227.95 414,227.175 Q413.05,226.4 412.025,226.4 Q409.9,226.4 408.8,228.0125 Q407.7,229.625 407.7,232.8 Q407.7,235.975 408.8,237.5875 Q409.9,239.2 412.025,239.2 Q413.05,239.2 414,238.425 Q414.95,237.65 415.95,236 L415.95,240.8 Z "/><text fill="#000000" font-family="sans-serif" font-size="19.2" lengthAdjust="spacingAndGlyphs" textLength="126.4" x="433.6" y="239.4469">AgendaEntry</text><line style="stroke: #A80036; stroke-width: 2.400000035762787;" x1="388.8" x2="563.2" y1="258.4" y2="258.4"/><rect fill="none" height="9.6" style="stroke: #C82930; stroke-width: 1.600000023841858;" width="9.6" x="400" y="272.6438"/><text fill="#000000" font-family="sans-serif" font-size="17.6" lengthAdjust="spacingAndGlyphs" textLength="86.4" x="419.2" y="281.1367">startTime</text><rect fill="none" height="9.6" style="stroke: #C82930; stroke-width: 1.600000023841858;" width="9.6" x="400" y="293.1313"/><text fill="#000000" font-family="sans-serif" font-size="17.6" lengthAdjust="spacingAndGlyphs" textLength="78.4" x="419.2" y="301.6242">endTime</text><!--class Skill--><rect fill="#FEFECE" filter="url(#fqbp7ar9oyvkb)" height="51.2" id="Skill" style="stroke: #A80036; stroke-width: 2.400000035762787;" width="89.6" x="365.6" y="456"/><ellipse cx="389.6" cy="481.6" fill="#ADD1B2" rx="17.6" ry="17.6" style="stroke: #A80036; stroke-width: 1.600000023841858;"/><path d="M394.35,489.6 Q393.425,490.4 392.4,490.8 Q391.375,491.2 390.25,491.2 Q386.25,491.2 384.1375,488.7375 Q382.025,486.275 382.025,481.6 Q382.025,476.925 384.1375,474.4625 Q386.25,472 390.25,472 Q391.375,472 392.4125,472.4 Q393.45,472.8 394.35,473.6 L394.35,478.4 Q393.35,476.75 392.4,475.975 Q391.45,475.2 390.425,475.2 Q388.3,475.2 387.2,476.8125 Q386.1,478.425 386.1,481.6 Q386.1,484.775 387.2,486.3875 Q388.3,488 390.425,488 Q391.45,488 392.4,487.225 Q393.35,486.45 394.35,484.8 L394.35,489.6 Z "/><text fill="#000000" font-family="sans-serif" font-size="19.2" lengthAdjust="spacingAndGlyphs" textLength="38.4" x="412" y="488.2469">Skill</text><!--class Resource--><rect fill="#FEFECE" filter="url(#fqbp7ar9oyvkb)" height="51.2" id="Resource" style="stroke: #A80036; stroke-width: 2.400000035762787;" width="139.2" x="652.8" y="456"/><ellipse cx="676.8" cy="481.6" fill="#ADD1B2" rx="17.6" ry="17.6" style="stroke: #A80036; stroke-width: 1.600000023841858;"/><path d="M681.55,489.6 Q680.625,490.4 679.6,490.8 Q678.575,491.2 677.45,491.2 Q673.45,491.2 671.3375,488.7375 Q669.225,486.275 669.225,481.6 Q669.225,476.925 671.3375,474.4625 Q673.45,472 677.45,472 Q678.575,472 679.6125,472.4 Q680.65,472.8 681.55,473.6 L681.55,478.4 Q680.55,476.75 679.6,475.975 Q678.65,475.2 677.625,475.2 Q675.5,475.2 674.4,476.8125 Q673.3,478.425 673.3,481.6 Q673.3,484.775 674.4,486.3875 Q675.5,488 677.625,488 Q678.65,488 679.6,487.225 Q680.55,486.45 681.55,484.8 L681.55,489.6 Z "/><text fill="#000000" font-family="sans-serif" font-size="19.2" lengthAdjust="spacingAndGlyphs" textLength="88" x="699.2" y="488.2469">Resource</text><!--class Manager--><rect fill="#FEFECE" filter="url(#fqbp7ar9oyvkb)" height="51.2" id="Manager" style="stroke: #A80036; stroke-width: 2.400000035762787;" width="134.4" x="16.8" y="12.8"/><ellipse cx="40.8" cy="38.4" fill="#ADD1B2" rx="17.6" ry="17.6" style="stroke: #A80036; stroke-width: 1.600000023841858;"/><path d="M45.55,46.4 Q44.625,47.2 43.6,47.6 Q42.575,48 41.45,48 Q37.45,48 35.3375,45.5375 Q33.225,43.075 33.225,38.4 Q33.225,33.725 35.3375,31.2625 Q37.45,28.8 41.45,28.8 Q42.575,28.8 43.6125,29.2 Q44.65,29.6 45.55,30.4 L45.55,35.2 Q44.55,33.55 43.6,32.775 Q42.65,32 41.625,32 Q39.5,32 38.4,33.6125 Q37.3,35.225 37.3,38.4 Q37.3,41.575 38.4,43.1875 Q39.5,44.8 41.625,44.8 Q42.65,44.8 43.6,44.025 Q44.55,43.25 45.55,41.6 L45.55,46.4 Z "/><text fill="#000000" font-family="sans-serif" font-size="19.2" lengthAdjust="spacingAndGlyphs" textLength="83.2" x="63.2" y="45.0469">Manager</text><!--class Worker--><rect fill="#FEFECE" filter="url(#fqbp7ar9oyvkb)" height="51.2" id="Worker" style="stroke: #A80036; stroke-width: 2.400000035762787;" width="120" x="211.2" y="234.4"/><ellipse cx="235.2" cy="260" fill="#ADD1B2" rx="17.6" ry="17.6" style="stroke: #A80036; stroke-width: 1.600000023841858;"/><path d="M239.95,268 Q239.025,268.8 238,269.2 Q236.975,269.6 235.85,269.6 Q231.85,269.6 229.7375,267.1375 Q227.625,264.675 227.625,260 Q227.625,255.325 229.7375,252.8625 Q231.85,250.4 235.85,250.4 Q236.975,250.4 238.0125,250.8 Q239.05,251.2 239.95,252 L239.95,256.8 Q238.95,255.15 238,254.375 Q237.05,253.6 236.025,253.6 Q233.9,253.6 232.8,255.2125 Q231.7,256.825 231.7,260 Q231.7,263.175 232.8,264.7875 Q233.9,266.4 236.025,266.4 Q237.05,266.4 238,265.625 Q238.95,264.85 239.95,263.2 L239.95,268 Z "/><text fill="#000000" font-family="sans-serif" font-size="19.2" lengthAdjust="spacingAndGlyphs" textLength="68.8" x="257.6" y="266.6469">Worker</text><!--class Team--><rect fill="#FEFECE" filter="url(#fqbp7ar9oyvkb)" height="51.2" id="Team" style="stroke: #A80036; stroke-width: 2.400000035762787;" width="104" x="211.2" y="12.8"/><ellipse cx="235.2" cy="38.4" fill="#ADD1B2" rx="17.6" ry="17.6" style="stroke: #A80036; stroke-width: 1.600000023841858;"/><path d="M239.95,46.4 Q239.025,47.2 238,47.6 Q236.975,48 235.85,48 Q231.85,48 229.7375,45.5375 Q227.625,43.075 227.625,38.4 Q227.625,33.725 229.7375,31.2625 Q231.85,28.8 235.85,28.8 Q236.975,28.8 238.0125,29.2 Q239.05,29.6 239.95,30.4 L239.95,35.2 Q238.95,33.55 238,32.775 Q237.05,32 236.025,32 Q233.9,32 232.8,33.6125 Q231.7,35.225 231.7,38.4 Q231.7,41.575 232.8,43.1875 Q233.9,44.8 236.025,44.8 Q237.05,44.8 238,44.025 Q238.95,43.25 239.95,41.6 L239.95,46.4 Z "/><text fill="#000000" font-family="sans-serif" font-size="19.2" lengthAdjust="spacingAndGlyphs" textLength="52.8" x="257.6" y="45.0469">Team</text><!--class Algorithm--><rect fill="#FEFECE" filter="url(#fqbp7ar9oyvkb)" height="51.2" id="Algorithm" style="stroke: #A80036; stroke-width: 2.400000035762787;" width="145.6" x="9.6" y="234.4"/><ellipse cx="33.6" cy="260" fill="#ADD1B2" rx="17.6" ry="17.6" style="stroke: #A80036; stroke-width: 1.600000023841858;"/><path d="M38.35,268 Q37.425,268.8 36.4,269.2 Q35.375,269.6 34.25,269.6 Q30.25,269.6 28.1375,267.1375 Q26.025,264.675 26.025,260 Q26.025,255.325 28.1375,252.8625 Q30.25,250.4 34.25,250.4 Q35.375,250.4 36.4125,250.8 Q37.45,251.2 38.35,252 L38.35,256.8 Q37.35,255.15 36.4,254.375 Q35.45,253.6 34.425,253.6 Q32.3,253.6 31.2,255.2125 Q30.1,256.825 30.1,260 Q30.1,263.175 31.2,264.7875 Q32.3,266.4 34.425,266.4 Q35.45,266.4 36.4,265.625 Q37.35,264.85 38.35,263.2 L38.35,268 Z "/><text fill="#000000" font-family="sans-serif" font-size="19.2" lengthAdjust="spacingAndGlyphs" textLength="94.4" x="56" y="266.6469">Algorithm</text><!--link Project to Task--><path d="M722.4,85.4256 C722.4,114.7632 722.4,153.5568 722.4,186.9696 " fill="none" id="Project-Task" style="stroke: #A80036; stroke-width: 1.600000023841858;"/><polygon fill="#FFFFFF" points="722.4,64.2064,716,73.8064,722.4,83.4064,728.8,73.8064,722.4,64.2064" style="stroke: #A80036; stroke-width: 1.600000023841858;"/><!--link Manager to Algorithm--><path d="M83.8227,64.2064 C83.5344,103.5648 82.9635,181.4688 82.6395,225.7072 " fill="none" id="Manager-Algorithm" style="stroke: #A80036; stroke-width: 1.600000023841858;"/><polygon fill="#A80036" points="82.5781,234.0848,89.0849,219.7327,82.6375,226.085,76.2852,219.6377,82.5781,234.0848" style="stroke: #A80036; stroke-width: 1.600000023841858;"/><text fill="#000000" font-family="sans-serif" font-size="20.8" lengthAdjust="spacingAndGlyphs" textLength="73.6" x="85.6" y="132.907">prefers</text><polygon fill="#000000" points="115.2,147.4125,120,157.0125,124.8,147.4125,115.2,147.4125" style="stroke: #000000; stroke-width: 1.600000023841858;"/><!--link Manager to Team--><path d="M151.2,38.4 C171.1792,38.4 191.1584,38.4 211.1376,38.4 " fill="none" id="Manager-Team" style="stroke: #A80036; stroke-width: 1.600000023841858;"/><!--link Team to Worker--><path d="M264.8672,85.5136 C266.5232,130.7072 268.9968,198.2704 270.3088,234.0848 " fill="none" id="Team-Worker" style="stroke: #A80036; stroke-width: 1.600000023841858;"/><polygon fill="#A80036" points="264.0864,64.2064,258.042,74.0342,264.789,83.3935,270.8334,73.5658,264.0864,64.2064" style="stroke: #A80036; stroke-width: 1.600000023841858;"/><!--link Worker to Skill--><path d="M297.864,303.4352 C322.4704,342.0416 358.8272,399.0842 383.5072,437.8051 " fill="none" id="Worker-Skill" style="stroke: #A80036; stroke-width: 1.600000023841858;"/><polygon fill="#A80036" points="394.9024,455.6845,392.5598,440.1014,390.6026,448.9382,381.7658,446.9811,394.9024,455.6845" style="stroke: #A80036; stroke-width: 1.600000023841858;"/><line style="stroke: #A80036; stroke-width: 1.600000023841858;" x1="390.6026" x2="383.7232" y1="448.9382" y2="438.1442"/><polygon fill="#FFFFFF" points="286.6288,285.8064,286.3914,297.3417,296.9481,301.9975,297.1855,290.4622,286.6288,285.8064" style="stroke: #A80036; stroke-width: 1.600000023841858;"/><text fill="#000000" font-family="sans-serif" font-size="20.8" lengthAdjust="spacingAndGlyphs" textLength="36.8" x="364" y="401.707">has</text><polygon fill="#000000" points="375.2,416.2125,380,425.8125,384.8,416.2125,375.2,416.2125" style="stroke: #000000; stroke-width: 1.600000023841858;"/><!--link Task to Skill--><path d="M621.5328,332.2064 C564.0752,372.4278 495.1632,420.6656 452.0672,450.8325 " fill="none" id="Task-Skill" style="stroke: #A80036; stroke-width: 1.600000023841858;"/><polygon fill="#A80036" points="445.3792,455.5149,460.8464,452.5005,451.9332,450.9274,453.5063,442.0142,445.3792,455.5149" style="stroke: #A80036; stroke-width: 1.600000023841858;"/><polygon fill="#000000" points="560.8,392.1063,551.2,396.9063,560.8,401.7063,560.8,392.1063" style="stroke: #000000; stroke-width: 1.600000023841858;"/><text fill="#000000" font-family="sans-serif" font-size="20.8" lengthAdjust="spacingAndGlyphs" textLength="84.8" x="570.4" y="401.707">requires</text><!--link Task to Resource--><path d="M722.4,333.112 C722.4,371.7747 722.4,417.621 722.4,447.6851 " fill="none" id="Task-Resource" style="stroke: #A80036; stroke-width: 1.600000023841858;"/><polygon fill="#A80036" points="722.4,455.7272,728.8,441.3272,722.4,447.7272,716,441.3272,722.4,455.7272" style="stroke: #A80036; stroke-width: 1.600000023841858;"/><text fill="#000000" font-family="sans-serif" font-size="20.8" lengthAdjust="spacingAndGlyphs" textLength="84.8" x="724" y="401.707">requires</text><polygon fill="#000000" points="759.2,416.2125,764,425.8125,768.8,416.2125,759.2,416.2125" style="stroke: #000000; stroke-width: 1.600000023841858;"/><!--link AgendaEntry to Task--><path d="M565.032,260 C583.8832,260 602.7344,260 621.5856,260 " fill="none" id="AgendaEntry-Task" style="stroke: #A80036; stroke-width: 1.600000023841858;"/><!--link Worker to AgendaEntry--><path d="M331.2,260 C349.8656,260 368.5312,260 387.1968,260 " fill="none" id="Worker-AgendaEntry" style="stroke: #A80036; stroke-width: 1.600000023841858;"/><!--link Resource to Resource--><path d="M813.568,465.8571 C833.5088,467.3664 848,472.6141 848,481.6 C848,493.5813 822.2368,498.9167 792.1472,497.6062 " fill="none" id="Resource-Resource" style="stroke: #A80036; stroke-width: 1.600000023841858;"/><polygon fill="#FFFFFF" points="792.1472,465.5938,801.6677,472.1114,811.3458,465.8301,801.8253,459.3124,792.1472,465.5938" style="stroke: #A80036; stroke-width: 1.600000023841858;"/><!--
@startuml

hide empty members

class Project
class Task {
	- description
	- expectedDuration
	- deadline
	- progress
}
class AgendaEntry {
	- startTime
	- endTime
}
class Skill
class Resource
class Manager
class Worker
class Team
class Algorithm

Project o- - Task
Manager - -> Algorithm : > prefers
Manager - Team
Team *- - Worker
Worker o- -> Skill : > has
Task - -> Skill : > requires
Task - -> Resource : > requires
AgendaEntry - Task
Worker - AgendaEntry
Resource o- Resource
@enduml

PlantUML version 1.2017.15(Mon Jul 03 18:45:34 CEST 2017)
(GPL source distribution)
Java Runtime: OpenJDK Runtime Environment
JVM: OpenJDK 64-Bit Server VM
Java Version: 1.8.0_152-release-915-b12
Operating System: Linux
OS Version: 4.13.0-16-generic
Default Encoding: UTF-8
Language: en
Country: US
--></g></svg>